<?xml version="1.0" encoding="UTF-8" standalone="no"?>
<!-- Created with Inkscape (http://www.inkscape.org/) -->

<svg
   width="640mm"
   height="640mm"
   viewBox="0 0 640 640"
   version="1.1"
   id="svg12"
   xml:space="preserve"
   sodipodi:docname="favicon.svg"
   inkscape:version="1.4.2 (f4327f4, 2025-05-13)"
   inkscape:export-filename="favicon.jpg"
   inkscape:export-xdpi="5.0799999"
   inkscape:export-ydpi="5.0799999"
   xmlns:inkscape="http://www.inkscape.org/namespaces/inkscape"
   xmlns:sodipodi="http://sodipodi.sourceforge.net/DTD/sodipodi-0.dtd"
   xmlns="http://www.w3.org/2000/svg"
   xmlns:svg="http://www.w3.org/2000/svg"><sodipodi:namedview
     id="namedview1"
     pagecolor="#ffffff"
     bordercolor="#000000"
     borderopacity="0.25"
     inkscape:showpageshadow="2"
     inkscape:pageopacity="0.0"
     inkscape:pagecheckerboard="0"
     inkscape:deskcolor="#d1d1d1"
     inkscape:document-units="mm"
     inkscape:zoom="0.25194607"
     inkscape:cx="1724.5754"
     inkscape:cy="996.24493"
     inkscape:window-width="1920"
     inkscape:window-height="1010"
     inkscape:window-x="-6"
     inkscape:window-y="-6"
     inkscape:window-maximized="1"
     inkscape:current-layer="svg12" /><defs
     id="defs9"><linearGradient
       id="linearGradient1059"><stop
         style="stop-color:#0000fe;stop-opacity:1;"
         offset="0"
         id="stop1057" /></linearGradient></defs><circle
     style="fill:#1a1a1a;stroke-width:0.272628"
     id="path1"
     cx="318.19806"
     cy="320.29837"
     r="320.29837" /><circle
     style="fill:#ffffff;stroke-width:0.264583"
     id="path2-2"
     cx="468.40024"
     cy="153.24799"
     r="81.912369" /><circle
     style="fill:#ffffff;stroke-width:0.189957"
     id="path2-14"
     cx="427.46854"
     cy="382.29697"
     r="58.80888" /><circle
     style="fill:#ffffff;stroke-width:0.21031"
     id="path2-1"
     cx="280.40927"
     cy="259.47531"
     r="65.109833" /><circle
     style="fill:#ffffff;stroke-width:0.322249"
     id="path2-5"
     cx="230.05753"
     cy="487.3418"
     r="99.76506" /><path
     style="display:none;fill:#ffffff;fill-opacity:1;stroke:#000000;stroke-width:3.65973;stroke-opacity:1"
     id="path15213-8"
     d="M 217.35826,427.01242 A 101.39407,101.39407 0 0 1 121.473,320.79243 101.39407,101.39407 0 0 1 227.29644,224.46969 101.39407,101.39407 0 0 1 324.05503,329.89476 101.39407,101.39407 0 0 1 219.03011,427.08754" /><path
     style="display:none;fill:#ffffff;fill-opacity:1;stroke:#000000;stroke-width:4.59271;stroke-opacity:1"
     id="path15226-8"
     d="M 218.32434,199.49161 A 127.24256,127.24256 0 0 0 97.994951,332.79037 127.24256,127.24256 0 0 0 230.79606,453.66876 127.24256,127.24256 0 0 0 352.22141,321.36758 127.24256,127.24256 0 0 0 220.42239,199.39734" /><circle
     style="fill:#ffffff;stroke-width:0.196741"
     id="path2"
     cx="80.862221"
     cy="322.39868"
     r="60.909199" /><rect
     style="fill:#ffffff;stroke-width:0.264583"
     id="rect2-2"
     width="59.859039"
     height="160.67427"
     x="-209.79063"
     y="290.94901"
     transform="rotate(-45.467147)" /><rect
     style="fill:#ffffff;stroke-width:0.264583"
     id="rect2-6"
     width="59.859039"
     height="160.67427"
     x="283.02237"
     y="236.90657"
     transform="rotate(10.167999)" /><rect
     style="fill:#ffffff;stroke-width:0.264583"
     id="rect2-7"
     width="59.859039"
     height="160.67427"
     x="-37.640465"
     y="430.76535"
     transform="rotate(-48.196548)" /><rect
     style="fill:#ffffff;stroke-width:0.264583"
     id="rect2-8"
     width="59.859039"
     height="160.67427"
     x="452.02762"
     y="133.51134"
     transform="rotate(7.7847476)" /></svg>
