<svg xmlns="http://www.w3.org/2000/svg" width="64" height="64" viewBox="0 0 17 17">
  <g transform="translate(-41.130443,-64.584192)">
    <rect fill="#001f3f" width="17" height="17" x="41.144348" y="64.58419"/>
    <g fill="#f9f9f9" transform="matrix(0.03392275,0,0,0.03392275,41.887494,68.250024)">
      <path d="M 408.06709,0.61960043 A 41.456993,41.456993 0 0 0 366.60967,42.076502 41.456993,41.456993 0 0 0 383.12029,75.187659 L 332.219,202.41659 a 31.981108,31.981108 0 0 0 -6.78925,-0.72916 31.981108,31.981108 0 0 0 -7.922,0.99684 l -51.95806,-94.1126 a 30.20438,30.20438 0 0 0 6.57841,-18.817974 30.20438,30.20438 0 0 0 -30.20436,-30.204359 30.20438,30.20438 0 0 0 -30.20436,30.204359 30.20438,30.20438 0 0 0 7.26881,19.653584 l -37.17861,81.20021 a 56.263054,56.263054 0 0 0 -21.61626,-4.31808 56.263054,56.263054 0 0 0 -40.83368,17.55706 L 60.675884,143.53388 A 31.981108,31.981108 0 0 0 65.569125,126.53285 31.981108,31.981108 0 0 0 33.588131,94.551852 31.981108,31.981108 0 0 0 1.6066203,126.53285 31.981108,31.981108 0 0 0 33.588131,158.51384 31.981108,31.981108 0 0 0 47.406926,155.3745 l 61.760054,63.47416 a 56.263054,56.263054 0 0 0 -5.23637,23.70346 56.263054,56.263054 0 0 0 56.26271,56.26324 56.263054,56.263054 0 0 0 56.26324,-56.26324 56.263054,56.263054 0 0 0 -19.42052,-42.52195 l 37.12641,-81.08601 a 30.20438,30.20438 0 0 0 7.76129,1.01389 30.20438,30.20438 0 0 0 8.88008,-1.3348 l 51.38549,93.07494 a 31.981108,31.981108 0 0 0 -8.74107,21.97024 31.981108,31.981108 0 0 0 31.98151,31.98099 31.981108,31.981108 0 0 0 31.981,-31.98099 31.981108,31.981108 0 0 0 -9.47023,-22.71645 L 399.29346,82.594443 a 41.456993,41.456993 0 0 0 8.77363,0.93896 41.456993,41.456993 0 0 0 41.4569,-41.456901 41.456993,41.456993 0 0 0 -41.4569,-41.45690157 z"/>
    </g>
  </g>
</svg>
